Coordinates
version=1
nRows=16
nColumns=42
inDegrees=yes

Units are S.I. units (second, meters, Newtons, ...)
If the header above contains a line with 'inDegrees', this indicates whether rotational values are in degrees (yes) or radians (no).

endheader
time	pelvis_tilt	pelvis_list	pelvis_rotation	pelvis_tx	pelvis_ty	pelvis_tz	hip_flexion_r	hip_adduction_r	hip_rotation_r	knee_angle_r	knee_adduction_r	knee_angle_r_beta	ankle_angle_r	subtalar_angle_r	mtp_angle_r	hip_flexion_l	hip_adduction_l	hip_rotation_l	knee_angle_l	knee_adduction_l	knee_angle_l_beta	ankle_angle_l	subtalar_angle_l	mtp_angle_l	lumbar_extension	lumbar_bending	lumbar_rotation	arm_flex_r	arm_add_r	arm_rot_r	elbow_flex_r	pro_sup_r	wrist_flex_r	wrist_dev_r	arm_flex_l	arm_add_l	arm_rot_l	elbow_flex_l	pro_sup_l	wrist_flex_l	wrist_dev_l
      4.25000000	      8.02144840	      4.69346388	      3.16014907	      0.20346573	      0.87121265	     -0.13380672	      1.58508543	     -4.21809830	    -26.87246356	     33.07964177	     -4.81159135	      0.57734866	     25.93953386	     37.29689049	     -7.50322457	     23.43322211	      2.46942148	     -9.41179237	     34.98785417	     -5.29533876	      0.61065325	     10.74519525	     14.77869592	     -7.50322457	    -24.96236816	     -1.49176718	     -4.19031174	      4.38706000	     -9.17319528	     -4.91862814	     49.62560751	     90.00000001	      0.00000000	      0.00000000	     13.04770865	    -12.41194698	     27.97144924	     52.92536813	     90.00000001	      0.00000000	      0.00000000
      4.26000000	      8.30913573	      4.72712035	      2.96486195	      0.20670746	      0.87139341	     -0.13375414	      1.00739957	     -4.23961770	    -26.69041245	     33.02303571	     -4.76024082	      0.57636070	     26.50965671	     37.41859221	     -7.50311421	     23.18169732	      2.55074808	     -9.90695498	     34.28603270	     -5.39029008	      0.59840416	     10.88955121	     15.94848629	     -7.50311421	    -25.15889698	     -1.54888401	     -4.20238778	      4.49227541	     -9.30566596	     -4.47427061	     49.14643943	     90.00000001	      0.00000000	      0.00000000	     12.94730010	    -12.34504590	     27.53927436	     52.81281861	     90.00000001	      0.00000000	      0.00000000
      4.27000000	      8.31903742	      4.66560768	      2.97606473	      0.20963812	      0.87096443	     -0.13394607	      0.80986363	     -4.16700579	    -26.62197895	     33.10919300	     -4.75761422	      0.57786443	     26.48564945	     37.30107536	     -7.50310109	     23.47139014	      2.54733920	    -10.01066531	     34.14799946	     -5.23095711	      0.59599502	     10.89651959	     15.91260107	     -7.50310109	    -25.10714516	     -1.46483242	     -4.23907336	      4.39295487	     -9.40009926	     -4.48798607	     49.10805311	     90.00000001	      0.00000000	      0.00000000	     12.96063124	    -12.36524117	     27.50254779	     52.83519856	     90.00000001	      0.00000000	      0.00000000
      4.28000000	      8.42383854	      4.55812166	      2.99020481	      0.21280466	      0.87077526	     -0.13419695	      0.42843814	     -4.07656118	    -26.81071371	     33.05943809	     -4.76839543	      0.57699604	     26.78149754	     37.50156466	     -7.50309577	     23.51865978	      2.54945505	    -10.03101347	     33.78047129	     -5.13054296	      0.58958045	     10.95993680	     16.05067419	     -7.50309577	    -25.11665345	     -1.30640270	     -4.31084737	      4.38047216	     -9.48828716	     -4.45424692	     48.81019412	     90.00000001	      0.00000000	      0.00000000	     12.94298430	    -12.36795893	     27.51500474	     52.71715494	     90.00000001	      0.00000000	      0.00000000
      4.29000000	      8.43602683	      4.50219621	      3.00677134	      0.21578413	      0.87036570	     -0.13445468	      0.20694429	     -4.01546995	    -26.78532378	     33.12238182	     -4.76601378	      0.57809462	     26.79241057	     37.43084839	     -7.50308662	     23.75412606	      2.57129410	    -10.13203723	     33.65194631	     -4.97101277	      0.58733726	     10.96825236	     16.03291355	     -7.50308662	    -25.08129520	     -1.22436922	     -4.34130472	      4.31907528	     -9.57648022	     -4.45973524	     48.73851626	     90.00000001	      0.00000000	      0.00000000	     12.94218831	    -12.36244602	     27.49064642	     52.72999614	     90.00000001	      0.00000000	      0.00000000
      4.30000000	      8.64288560	      4.40851835	      3.01739427	      0.21899309	      0.87035468	     -0.13476091	     -0.31458500	     -3.94396972	    -27.03929312	     33.04751533	     -4.78071129	      0.57678795	     27.21324025	     37.60781456	     -7.50307596	     23.62394729	      2.57959790	    -10.15208811	     33.29369855	     -4.82719130	      0.58108466	     11.00317796	     16.25549221	     -7.50307596	    -25.22096691	     -1.08260214	     -4.44526867	      4.46872904	     -9.64375961	     -4.33718779	     48.16622338	     90.00000001	      0.00000000	      0.00000000	     12.90489022	    -12.31901476	     27.46289016	     52.60632400	     90.00000001	      0.00000000	      0.00000000
      4.31000000	      8.63400513	      4.34856211	      3.01767068	      0.22202853	      0.86989542	     -0.13505214	     -0.52318387	     -3.90253619	    -27.03797066	     33.09025761	     -4.76696293	      0.57753395	     27.22854966	     37.56278778	     -7.50306795	     23.81692996	      2.59812072	    -10.28899287	     33.17228395	     -4.69445014	      0.57896558	     11.01383155	     16.22603830	     -7.50306795	    -25.17569294	     -0.98626844	     -4.47772484	      4.40770613	     -9.76394140	     -4.34928079	     48.07604563	     90.00000001	      0.00000000	      0.00000000	     12.90894915	    -12.34395956	     27.43045786	     52.61788433	     90.00000001	      0.00000000	      0.00000000
      4.32000000	      8.62917679	      4.27850485	      3.00334363	      0.22504088	      0.86944583	     -0.13541111	     -0.73184675	     -3.85426075	    -27.05725774	     33.13306603	     -4.75687177	      0.57828109	     27.27266552	     37.52716788	     -7.50306191	     23.97541065	      2.61608951	    -10.44107673	     33.04173249	     -4.57202436	      0.57668702	     11.02445371	     16.19177780	     -7.50306191	    -25.13934801	     -0.87597938	     -4.50871286	      4.38392549	     -9.88260959	     -4.35816370	     47.96116833	     90.00000001	      0.00000000	      0.00000000	     12.90220799	    -12.32648155	     27.41869324	     52.62330001	     90.00000001	      0.00000000	      0.00000000
      4.33000000	      8.77549095	      4.19344999	      2.82197922	      0.22819886	      0.86927837	     -0.13554881	     -1.10377053	     -3.80363918	    -27.13560334	     33.13981438	     -4.81139330	      0.57839887	     27.70726141	     37.67612184	     -7.50303056	     23.86223361	      2.56264964	    -10.81144789	     32.79110601	     -4.54026818	      0.57231277	     10.98091771	     16.17990704	     -7.50303056	    -25.24465446	     -0.80489615	     -4.48562640	      4.65693946	     -9.97669377	     -4.17307478	     47.16049351	     90.00000001	      0.00000000	      0.00000000	     12.85147008	    -12.29216490	     27.32635939	     52.53748563	     90.00000001	      0.00000000	      0.00000000
      4.34000000	      8.72125617	      4.12176838	      2.77677452	      0.23115452	      0.86870454	     -0.13597464	     -1.23522640	     -3.76948571	    -27.08082508	     33.22333199	     -4.80619224	      0.57985653	     27.70535268	     37.57962693	     -7.50301993	     24.02885358	      2.56710685	    -10.97780591	     32.69573697	     -4.41235865	      0.57064826	     10.97605244	     16.12238440	     -7.50301993	    -25.18846146	     -0.68750834	     -4.50314929	      4.65685599	    -10.11686926	     -4.18766724	     47.09099972	     90.00000001	      0.00000000	      0.00000000	     12.83805595	    -12.25563912	     27.30775327	     52.56951374	     90.00000001	      0.00000000	      0.00000000
      4.35000000	      8.72476336	      4.05340214	      2.48945103	      0.23416865	      0.86825829	     -0.13610988	     -1.34126040	     -3.76062030	    -26.96251670	     33.37620981	     -4.87406856	      0.58252475	     27.99702137	     37.69533156	     -7.50298878	     24.04415589	      2.50710172	    -11.50977038	     32.53095878	     -4.41662100	      0.56777234	     10.90434548	     15.91794179	     -7.50298878	    -25.18717542	     -0.66124862	     -4.34097188	      4.85286338	    -10.23583824	     -4.06964794	     46.54511607	     90.00000001	      0.00000000	      0.00000000	     12.80278893	    -12.19221452	     27.24280842	     52.54425271	     90.00000001	      0.00000000	      0.00000000
      4.36000000	      8.66996426	      3.96187721	      2.31648366	      0.23722152	      0.86766061	     -0.13643278	     -1.44268483	     -3.75130346	    -26.92002653	     33.50893006	     -4.84167821	      0.58484116	     28.13360305	     37.71650892	     -7.50297237	     24.10333041	      2.46363777	    -11.85850293	     32.37202255	     -4.35412549	      0.56499838	     10.86714819	     15.77061336	     -7.50297237	    -25.10938068	     -0.56786944	     -4.25868342	      4.95870698	    -10.36705488	     -4.04243633	     46.32454939	     90.00000001	      0.00000000	      0.00000000	     12.75323006	    -12.14005847	     27.22887940	     52.54054268	     90.00000001	      0.00000000	      0.00000000
      4.37000000	      8.61189834	      3.90894251	      2.20341335	      0.24020446	      0.86703420	     -0.13691027	     -1.54308343	     -3.73828587	    -26.85158112	     33.58501504	     -4.90452422	      0.58616909	     28.18153138	     37.72276332	     -7.50296754	     24.17150359	      2.50663249	    -12.01459940	     32.31364665	     -4.28260122	      0.56397953	     10.85070497	     15.70346617	     -7.50296754	    -25.07694478	     -0.48439600	     -4.25340039	      5.01412553	    -10.52131181	     -4.06281708	     46.23582466	     90.00000001	      0.00000000	      0.00000000	     12.74545241	    -12.10293730	     27.23094020	     52.54536377	     90.00000001	      0.00000000	      0.00000000
      4.38000000	      8.58317742	      3.89765640	      1.66718731	      0.24324279	      0.86648827	     -0.13680893	     -1.51124870	     -3.80115348	    -26.43724816	     33.89287742	     -5.03451373	      0.59154230	     28.58672308	     37.79169087	     -7.50293319	     24.09989978	      2.41617789	    -12.80343241	     32.14189508	     -4.31509546	      0.56098190	     10.64865899	     15.17749070	     -7.50293319	    -25.06320482	     -0.60426655	     -3.89166248	      5.28121907	    -10.66310104	     -3.93715539	     45.61205457	     90.00000001	      0.00000000	      0.00000000	     12.73357557	    -12.01520438	     27.17379456	     52.50098522	     90.00000001	      0.00000000	      0.00000000
      4.39000000	      8.49128670	      3.81346601	      1.53727895	      0.24635901	      0.86580740	     -0.13739866	     -1.59078942	     -3.80091377	    -26.39543755	     33.98133096	     -5.02314436	      0.59308611	     28.63955182	     37.78552704	     -7.50292735	     24.11754721	      2.43556154	    -12.98264718	     32.04714860	     -4.24040300	      0.55932826	     10.61880755	     15.08135453	     -7.50292735	    -24.98835411	     -0.46918269	     -3.87925306	      5.36118815	    -10.83173313	     -3.96397163	     45.54987696	     90.00000001	      0.00000000	      0.00000000	     12.65157802	    -11.94908061	     27.19465691	     52.49783029	     90.00000001	      0.00000000	      0.00000000
      4.40000000	      8.45010680	      3.73863591	      1.06498591	      0.24950425	      0.86522610	     -0.13746999	     -1.57683560	     -3.83480388	    -26.03163123	     34.28508586	     -5.07255624	      0.59838763	     28.94185359	     37.82856645	     -7.50289987	     23.97119691	      2.33930244	    -13.58466363	     31.83382227	     -4.27846917	      0.55560501	     10.38683559	     14.56609497	     -7.50289987	    -24.95884841	     -0.48378439	     -3.54472522	      5.57305111	    -10.98426421	     -3.88987197	     45.14899424	     90.00000001	      0.00000000	      0.00000000	     12.63751205	    -11.85793963	     27.14437632	     52.47235831	     90.00000001	      0.00000000	      0.00000000
